<svg width="24" height="24" viewBox="0 0 24 24" fill="none" xmlns="http://www.w3.org/2000/svg">
<path d="M23.2722 22.5938H22.5692V7.46002C23.4262 6.94552 24 6.01308 24 4.95028C24 4.46081 23.8756 3.97603 23.6403 3.54839C23.63 3.52978 23.6188 3.51206 23.6071 3.49477L22.055 0.388781C21.9359 0.150516 21.6925 0 21.4261 0H2.67225C2.41228 0 2.17355 0.143438 2.05153 0.373031L0.351516 3.57127C0.339891 3.59311 0.329625 3.61533 0.320531 3.63778C0.115781 4.04278 0.00764063 4.49494 0.00764063 4.95033C0.00764063 5.99953 0.567234 6.92128 1.40602 7.43972V22.5938H0.703031C0.314766 22.5938 0 22.9086 0 23.2969C0 23.6852 0.314766 24 0.703031 24H23.2723C23.6605 24 23.9753 23.6852 23.9753 23.2969C23.9753 22.9086 23.6605 22.5938 23.2722 22.5938ZM3.09469 1.40625H20.9916L22.3956 4.2157C22.4112 4.24697 22.4288 4.2765 22.4482 4.30434C22.5449 4.50628 22.594 4.72308 22.594 4.95033C22.594 5.79206 21.8962 6.47686 21.0383 6.47686C20.1805 6.47686 19.4827 5.79206 19.4827 4.95033C19.4827 4.56202 19.1679 4.2472 18.7797 4.2472C18.3915 4.2472 18.0767 4.56202 18.0767 4.95033C18.0767 5.79206 17.3789 6.47686 16.5211 6.47686C15.6633 6.47686 14.9655 5.79206 14.9655 4.95033C14.9655 4.56202 14.6507 4.2472 14.2625 4.2472C13.8742 4.2472 13.5595 4.56202 13.5595 4.95033C13.5595 5.79206 12.8617 6.47686 12.0039 6.47686C11.1461 6.47686 10.4482 5.79206 10.4482 4.95033C10.4482 4.56202 10.1335 4.2472 9.74527 4.2472C9.357 4.2472 9.04228 4.56202 9.04228 4.95033C9.04228 5.79206 8.34445 6.47686 7.48664 6.47686C6.62883 6.47686 5.931 5.79206 5.931 4.95033C5.931 4.56202 5.61623 4.2472 5.22797 4.2472C4.8397 4.2472 4.52498 4.56202 4.52498 4.95033C4.52498 5.79206 3.82716 6.47686 2.96934 6.47686C2.11158 6.47686 1.41375 5.79206 1.41375 4.95033C1.41375 4.69922 1.47361 4.46039 1.59169 4.24041C1.60223 4.22077 1.61147 4.20084 1.61995 4.18069L3.09469 1.40625ZM2.81203 7.87889C2.86411 7.88161 2.91652 7.88311 2.96925 7.88311C3.87342 7.88311 4.68422 7.4798 5.22787 6.84534C5.77158 7.4798 6.58238 7.88311 7.4865 7.88311C8.39062 7.88311 9.20147 7.4798 9.74512 6.84534C10.2888 7.4798 11.0996 7.88311 12.0037 7.88311C12.9079 7.88311 13.7187 7.4798 14.2624 6.84534C14.8061 7.4798 15.6169 7.88311 16.521 7.88311C17.4251 7.88311 18.2359 7.4798 18.7796 6.84534C19.3233 7.4798 20.1341 7.88311 21.0382 7.88311C21.0801 7.88311 21.1216 7.8817 21.1631 7.87997V22.5938H2.81203V7.87889Z" fill="black"/>
<path d="M18.9646 9.28354H13.473C12.9075 9.28354 12.392 9.5009 12.005 9.85621C11.6034 9.48637 11.0855 9.28354 10.5358 9.28354H5.04417C4.65591 9.28354 4.34119 9.59835 4.34119 9.98666V20.4862C4.34119 20.8746 4.65595 21.1894 5.04417 21.1894H12.0032H18.9646C19.3529 21.1894 19.6676 20.8746 19.6676 20.4862V9.98666C19.6677 9.59835 19.3529 9.28354 18.9646 9.28354ZM5.7472 10.6898H10.5358C10.7409 10.6898 10.9334 10.7697 11.078 10.9146C11.2219 11.0591 11.3008 11.2508 11.3002 11.4568V19.7831H5.7472V10.6898ZM18.2617 19.7831H12.7062V11.4589C12.7062 11.4584 12.7061 11.4579 12.7061 11.4574C12.7061 11.4572 12.7062 11.457 12.7062 11.4568C12.7062 11.0339 13.0502 10.6898 13.473 10.6898H18.2617V19.7831Z" fill="black"/>
<path d="M14.8475 15.5648H16.6132C17.0015 15.5648 17.3162 15.25 17.3162 14.8617C17.3162 14.4734 17.0015 14.1585 16.6132 14.1585H14.8475C14.4593 14.1585 14.1445 14.4734 14.1445 14.8617C14.1445 15.25 14.4593 15.5648 14.8475 15.5648Z" fill="black"/>
<path d="M14.8475 18.3773H16.6132C17.0015 18.3773 17.3162 18.0625 17.3162 17.6742C17.3162 17.2859 17.0015 16.971 16.6132 16.971H14.8475C14.4593 16.971 14.1445 17.2859 14.1445 17.6742C14.1445 18.0625 14.4593 18.3773 14.8475 18.3773Z" fill="black"/>
<path d="M9.16128 14.1585H7.3956C7.00733 14.1585 6.69257 14.4734 6.69257 14.8617C6.69257 15.25 7.00733 15.5648 7.3956 15.5648H9.16128C9.54955 15.5648 9.86427 15.25 9.86427 14.8617C9.86427 14.4734 9.54955 14.1585 9.16128 14.1585Z" fill="black"/>
<path d="M9.16128 16.971H7.3956C7.00733 16.971 6.69257 17.2859 6.69257 17.6742C6.69257 18.0625 7.00733 18.3773 7.3956 18.3773H9.16128C9.54955 18.3773 9.86427 18.0625 9.86427 17.6742C9.86427 17.2859 9.54955 16.971 9.16128 16.971Z" fill="black"/>
</svg>
